{
	"asset":{
		"generator":"Khronos glTF Blender I/O v4.3.47",
		"version":"2.0"
	},
	"scene":0,
	"scenes":[
		{
			"name":"Scene",
			"nodes":[
				64
			]
		}
	],
	"nodes":[
		{
			"name":"head_tip_BIND",
			"rotation":[
				2.78164772845365e-16,
				1.9567680809018384e-15,
				-8.195640077701682e-08,
				1
			],
			"scale":[
				0.9999998807907104,
				0.9999998807907104,
				1
			],
			"translation":[
				0.04454166814684868,
				1.0896474123001099e-07,
				4.034554634824161e-10
			]
		},
		{
			"children":[
				0
			],
			"name":"head_BIND",
			"rotation":[
				6.5796367377905784e-15,
				3.5813854104560505e-09,
				-9.98377799987793e-07,
				1
			],
			"translation":[
				0.07884012162685394,
				1.2293457984924316e-07,
				1.4941643755594924e-10
			]
		},
		{
			"children":[
				1
			],
			"name":"neck_BIND",
			"rotation":[
				-4.324423874546568e-10,
				8.240281346161282e-09,
				-0.06794887781143188,
				0.9976888298988342
			],
			"translation":[
				0.11302348971366882,
				0.0007969625294208527,
				-1.6528064472609572e-09
			]
		},
		{
			"name":"left_middle4_BIND",
			"rotation":[
				-3.3237301799715624e-15,
				4.1772141301521515e-14,
				1.532107773982716e-14,
				1
			],
			"translation":[
				0.021595388650894165,
				1.8048176286811213e-08,
				-7.128551260393579e-08
			]
		},
		{
			"children":[
				3
			],
			"name":"left_middle3_BIND",
			"rotation":[
				-6.307151920736942e-07,
				-1.490112211399719e-08,
				-4.312582646548435e-08,
				1
			],
			"translation":[
				0.02338395081460476,
				1.7891911952006012e-08,
				2.0994411897845566e-07
			]
		},
		{
			"children":[
				4
			],
			"name":"left_middle2_BIND",
			"rotation":[
				-3.1925619623507373e-06,
				0.041310183703899384,
				-9.213675156161116e-08,
				0.9991464018821716
			],
			"scale":[
				0.9999998807907104,
				1,
				0.9999998807907104
			],
			"translation":[
				0.02672000601887703,
				-2.8318146050310133e-08,
				0.0014073094353079796
			]
		},
		{
			"children":[
				5
			],
			"name":"left_middle1_BIND",
			"rotation":[
				-2.0406546354934108e-06,
				0.005157020874321461,
				0.00019532693841028959,
				0.9999867081642151
			],
			"scale":[
				1,
				0.9999998211860657,
				0.9999999403953552
			],
			"translation":[
				0.08709157258272171,
				-0.012278108857572079,
				-0.0006213464657776058
			]
		},
		{
			"name":"left_thumb4_BIND",
			"rotation":[
				-5.1514348342607263e-14,
				-3.86690679476942e-13,
				-4.633325545455591e-08,
				1
			],
			"translation":[
				0.020146116614341736,
				-9.557048485930864e-08,
				-5.848619366588537e-09
			]
		},
		{
			"children":[
				7
			],
			"name":"left_thumb3_BIND",
			"rotation":[
				-5.168789840581667e-09,
				-1.6670926470396807e-06,
				-7.86268572028348e-07,
				1
			],
			"translation":[
				0.019778085872530937,
				6.739352897966455e-08,
				-9.41909661378304e-08
			]
		},
		{
			"children":[
				8
			],
			"name":"left_thumb2_BIND",
			"rotation":[
				1.0031128994114624e-07,
				-6.970757567614783e-06,
				1.883601271401858e-06,
				1
			],
			"scale":[
				1.0000001192092896,
				1.0000001192092896,
				1
			],
			"translation":[
				0.022953996434807777,
				-1.6443348727079865e-07,
				-2.680963575585338e-07
			]
		},
		{
			"children":[
				9
			],
			"name":"left_thumb1_BIND",
			"rotation":[
				0.7069987058639526,
				0.012515582144260406,
				-0.012234469875693321,
				0.7069982886314392
			],
			"scale":[
				0.9999998807907104,
				0.9999999403953552,
				0.9999998211860657
			],
			"translation":[
				0.03932266682386398,
				-0.03198619931936264,
				-0.02107292227447033
			]
		},
		{
			"name":"left_index4_BIND",
			"rotation":[
				-2.8581976039276924e-06,
				7.450717376400462e-09,
				-2.6927079943561694e-07,
				1
			],
			"translation":[
				0.020752139389514923,
				7.325177797667948e-09,
				3.343220953411219e-07
			]
		},
		{
			"children":[
				11
			],
			"name":"left_index3_BIND",
			"rotation":[
				-1.519997283594421e-07,
				0.012170781381428242,
				4.303170086927821e-08,
				0.999925971031189
			],
			"translation":[
				0.021855609491467476,
				4.819050047899509e-09,
				0.0001185266810352914
			]
		},
		{
			"children":[
				12
			],
			"name":"left_index2_BIND",
			"rotation":[
				-2.7261412469670177e-06,
				0.027369750663638115,
				-7.464177542715333e-08,
				0.9996253848075867
			],
			"scale":[
				0.9999999403953552,
				1,
				0.9999999403953552
			],
			"translation":[
				0.024366917088627815,
				2.1272121841775515e-09,
				0.0006396921817213297
			]
		},
		{
			"children":[
				13
			],
			"name":"left_index1_BIND",
			"rotation":[
				5.702468683921325e-07,
				0.014597794972360134,
				0.00019519380293786526,
				0.9998934268951416
			],
			"scale":[
				1,
				0.9999998211860657,
				0.9999999403953552
			],
			"translation":[
				0.08661161363124847,
				-0.028236310929059982,
				-0.00415900070220232
			]
		},
		{
			"name":"left_ring4_BIND",
			"rotation":[
				1.4141967596970062e-09,
				1.8626303832647295e-09,
				1.1657341758564144e-15,
				1
			],
			"translation":[
				0.02058262564241886,
				2.653042230349456e-09,
				-4.4077694383304333e-08
			]
		},
		{
			"children":[
				15
			],
			"name":"left_ring3_BIND",
			"rotation":[
				-2.106864940287778e-06,
				3.725222796902017e-09,
				-9.049621496615146e-08,
				1
			],
			"translation":[
				0.02382667548954487,
				-1.6350156784028513e-09,
				1.731247607494879e-07
			]
		},
		{
			"children":[
				16
			],
			"name":"left_ring2_BIND",
			"rotation":[
				2.8978106456634123e-06,
				-0.004204023629426956,
				1.050802396207473e-07,
				0.9999911785125732
			],
			"translation":[
				0.028341850265860558,
				-1.8514239030764656e-08,
				-7.68561294535175e-05
			]
		},
		{
			"children":[
				17
			],
			"name":"left_ring1_BIND",
			"rotation":[
				-1.3295805274537997e-06,
				0.03509817272424698,
				0.00019526327378116548,
				0.9993838667869568
			],
			"scale":[
				0.9999999403953552,
				0.9999998211860657,
				0.9999999403953552
			],
			"translation":[
				0.08324258029460907,
				0.004525600932538509,
				-0.0007188937161117792
			]
		},
		{
			"name":"left_pinky4_BIND",
			"rotation":[
				-3.515773006057543e-09,
				-2.7935800339662364e-09,
				1.1250722309341654e-07,
				1
			],
			"scale":[
				0.9999999403953552,
				1,
				0.9999999403953552
			],
			"translation":[
				0.0165557824075222,
				1.2711737440440629e-08,
				7.303179927475867e-08
			]
		},
		{
			"children":[
				19
			],
			"name":"left_pinky3_BIND",
			"rotation":[
				3.6101943123867386e-07,
				0.011917113326489925,
				-5.195498786747521e-08,
				0.9999290108680725
			],
			"translation":[
				0.01839297264814377,
				-2.4662474729097994e-08,
				3.519795654938207e-08
			]
		},
		{
			"children":[
				20
			],
			"name":"left_pinky2_BIND",
			"rotation":[
				2.262415819132002e-07,
				-0.0164351649582386,
				-3.718821250942028e-09,
				0.999864935874939
			],
			"translation":[
				0.019777026027441025,
				-2.411224109266641e-08,
				-7.570409798063338e-05
			]
		},
		{
			"children":[
				21
			],
			"name":"left_pinky1_BIND",
			"rotation":[
				-2.6469029990039417e-07,
				0.03430632874369621,
				0.0001952496386365965,
				0.9994113445281982
			],
			"scale":[
				0.9999999403953552,
				0.9999998211860657,
				0.9999999403953552
			],
			"translation":[
				0.0769510418176651,
				0.020022915676236153,
				-0.0036680216435343027
			]
		},
		{
			"children":[
				6,
				10,
				14,
				18,
				22
			],
			"name":"left_wrist_BIND",
			"rotation":[
				-5.365052402339643e-07,
				-0.012606889009475708,
				-0.0001616817753529176,
				0.9999204874038696
			],
			"translation":[
				0.24667121469974518,
				1.1994547577387493e-08,
				1.2063445353760471e-07
			]
		},
		{
			"children":[
				23
			],
			"name":"left_elbow_BIND",
			"rotation":[
				7.295622439507099e-12,
				2.96838152280543e-06,
				-6.312740151770413e-05,
				1
			],
			"translation":[
				0.2800044119358063,
				1.3461189496410952e-08,
				4.4868496473782216e-08
			]
		},
		{
			"children":[
				24
			],
			"name":"left_shoulder_BIND",
			"rotation":[
				4.239255127491681e-11,
				-1.4340193956741132e-06,
				2.9562377676484175e-05,
				1
			],
			"translation":[
				0.12806746363639832,
				0.03803800046443939,
				-0.028020376339554787
			]
		},
		{
			"children":[
				25
			],
			"name":"left_collar_BIND",
			"rotation":[
				-0.05047864839434624,
				0.7053027153015137,
				0.05047864094376564,
				0.7053027153015137
			],
			"scale":[
				0.9999998807907104,
				0.9999998211860657,
				1
			],
			"translation":[
				0.10837703198194504,
				-0.0014223530888557434,
				-0.038171764463186264
			]
		},
		{
			"name":"right_middle4_BIND",
			"rotation":[
				-6.851186284961841e-13,
				5.006387665540402e-12,
				-4.312589041433057e-08,
				1
			],
			"translation":[
				-0.02159535512328148,
				-4.0105078369379044e-08,
				-1.887883513518318e-06
			]
		},
		{
			"children":[
				27
			],
			"name":"right_middle3_BIND",
			"rotation":[
				-6.361062787618721e-07,
				1.7881755809412425e-07,
				4.3125695015078236e-08,
				1
			],
			"scale":[
				0.9999999403953552,
				1,
				0.9999999403953552
			],
			"translation":[
				-0.02338389866054058,
				-4.0124064071278553e-08,
				6.951114301045891e-06
			]
		},
		{
			"children":[
				28
			],
			"name":"right_middle2_BIND",
			"rotation":[
				-5.411072834249353e-06,
				0.04130949079990387,
				-3.034420785752445e-07,
				0.9991464018821716
			],
			"scale":[
				1,
				0.9999998807907104,
				0.9999999403953552
			],
			"translation":[
				-0.026719680055975914,
				-1.6335263808286982e-08,
				-0.0014116977108642459
			]
		},
		{
			"children":[
				29
			],
			"name":"right_middle1_BIND",
			"rotation":[
				1.8703428850130877e-07,
				0.00515653844922781,
				0.0001953373575815931,
				0.9999867081642151
			],
			"scale":[
				1,
				0.9999999403953552,
				1
			],
			"translation":[
				-0.08709114044904709,
				0.012277999892830849,
				0.0006252711755223572
			]
		},
		{
			"name":"right_thumb4_BIND",
			"rotation":[
				2.7739309871321893e-07,
				9.22331128094811e-06,
				1.4793986338190734e-06,
				1
			],
			"translation":[
				-0.020145684480667114,
				-7.130026006052503e-06,
				1.8795299183693714e-07
			]
		},
		{
			"children":[
				31
			],
			"name":"right_thumb3_BIND",
			"rotation":[
				2.722032377278083e-07,
				-6.480407591880066e-06,
				-8.777703897067113e-07,
				1
			],
			"translation":[
				-0.019777821376919746,
				6.5335493673046585e-06,
				3.154553951389971e-08
			]
		},
		{
			"children":[
				32
			],
			"name":"right_thumb2_BIND",
			"rotation":[
				-6.69690791710309e-08,
				-6.164110573081416e-07,
				1.836568344515399e-06,
				1
			],
			"scale":[
				1.0000001192092896,
				1.0000001192092896,
				1
			],
			"translation":[
				-0.022953853011131287,
				-4.713354428531602e-06,
				6.219233910087496e-07
			]
		},
		{
			"children":[
				33
			],
			"name":"right_thumb1_BIND",
			"rotation":[
				0.7069987058639526,
				0.012511304579675198,
				-0.01223805733025074,
				0.7069982886314392
			],
			"scale":[
				1,
				1,
				0.9999999403953552
			],
			"translation":[
				-0.039322417229413986,
				0.03198615089058876,
				0.021077608689665794
			]
		},
		{
			"name":"right_index4_BIND",
			"rotation":[
				-2.8046516220570084e-09,
				5.029438909787132e-08,
				4.4877772609197564e-08,
				1
			],
			"translation":[
				-0.02075224556028843,
				-4.685114163294202e-08,
				-1.8892986872742767e-06
			]
		},
		{
			"children":[
				35
			],
			"name":"right_index3_BIND",
			"rotation":[
				-2.888793346755847e-07,
				0.012170743197202682,
				-3.5161629163837915e-09,
				0.9999259114265442
			],
			"translation":[
				-0.021855847910046577,
				-5.352114840206923e-08,
				-0.00011301637277938426
			]
		},
		{
			"children":[
				36
			],
			"name":"right_index2_BIND",
			"rotation":[
				-5.451039669424063e-06,
				0.027369452640414238,
				-1.9187511668405932e-07,
				0.9996253848075867
			],
			"scale":[
				1,
				0.9999998807907104,
				1
			],
			"translation":[
				-0.024366389960050583,
				-2.862138615000731e-08,
				-0.0006470493972301483
			]
		},
		{
			"children":[
				37
			],
			"name":"right_index1_BIND",
			"rotation":[
				5.703531655854022e-07,
				0.014597268775105476,
				0.0001951950107468292,
				0.9998934268951416
			],
			"scale":[
				1,
				0.9999999403953552,
				1
			],
			"translation":[
				-0.08661097288131714,
				0.028236154466867447,
				0.00416423287242651
			]
		},
		{
			"name":"right_ring4_BIND",
			"rotation":[
				-2.8972710879315855e-06,
				1.8595333051152352e-09,
				-9.049551152884305e-08,
				1
			],
			"scale":[
				1.0000001192092896,
				1,
				1.0000001192092896
			],
			"translation":[
				-0.020582513883709908,
				-7.914252364571439e-09,
				-2.8727213248203043e-06
			]
		},
		{
			"children":[
				39
			],
			"name":"right_ring3_BIND",
			"rotation":[
				3.288947027613176e-06,
				-1.676518301962915e-08,
				1.3574327795140562e-07,
				1
			],
			"scale":[
				1.0000001192092896,
				0.9999998807907104,
				1.0000001192092896
			],
			"translation":[
				-0.02382616698741913,
				-2.121311126757064e-08,
				8.273181265394669e-06
			]
		},
		{
			"children":[
				40
			],
			"name":"right_ring2_BIND",
			"rotation":[
				4.0292505332217843e-07,
				-0.004204008728265762,
				-4.0782026644592406e-08,
				0.9999911785125732
			],
			"scale":[
				1,
				0.9999998807907104,
				1
			],
			"translation":[
				-0.02834184467792511,
				-1.0704525266191922e-08,
				7.542131061200052e-05
			]
		},
		{
			"children":[
				41
			],
			"name":"right_ring1_BIND",
			"rotation":[
				-1.3316142712938017e-06,
				0.0350981168448925,
				0.00019526202231645584,
				0.9993838667869568
			],
			"translation":[
				-0.08324196934700012,
				-0.004525698255747557,
				0.0007182829431258142
			]
		},
		{
			"name":"right_pinky4_BIND",
			"rotation":[
				3.633204848085825e-14,
				5.215224518906325e-08,
				5.6253629310276665e-08,
				1
			],
			"translation":[
				-0.01655578427016735,
				-1.685430106590502e-08,
				1.0649534942785976e-06
			]
		},
		{
			"children":[
				43
			],
			"name":"right_pinky3_BIND",
			"rotation":[
				3.605799463457515e-07,
				0.011917239986360073,
				-5.1960217462010405e-08,
				0.9999290108680725
			],
			"translation":[
				-0.018392983824014664,
				-3.580566954042297e-10,
				6.289533757808385e-06
			]
		},
		{
			"children":[
				44
			],
			"name":"right_pinky2_BIND",
			"rotation":[
				2.3715205088592484e-07,
				-0.016435351222753525,
				-2.0646307063998393e-07,
				0.999864935874939
			],
			"scale":[
				0.9999999403953552,
				0.9999998807907104,
				1
			],
			"translation":[
				-0.019776515662670135,
				-1.162806029242347e-08,
				7.205044676084071e-05
			]
		},
		{
			"children":[
				45
			],
			"name":"right_pinky1_BIND",
			"rotation":[
				-2.7114424483443145e-07,
				0.034306254237890244,
				0.00019544237875379622,
				0.9994113445281982
			],
			"scale":[
				1,
				0.9999999403953552,
				1
			],
			"translation":[
				-0.07695058733224869,
				-0.020023051649332047,
				0.003670761827379465
			]
		},
		{
			"children":[
				30,
				34,
				38,
				42,
				46
			],
			"name":"right_wrist_BIND",
			"rotation":[
				-5.352467837838049e-07,
				-0.012606439180672169,
				-0.00016158678045030683,
				0.9999205470085144
			],
			"scale":[
				0.9999999403953552,
				1,
				0.9999999403953552
			],
			"translation":[
				-0.2466689646244049,
				-2.6815231990440225e-07,
				-7.11743439296697e-07
			]
		},
		{
			"children":[
				47
			],
			"name":"right_elbow_BIND",
			"rotation":[
				8.095941694818976e-10,
				2.945699179690564e-06,
				-6.318789382930845e-05,
				1
			],
			"translation":[
				-0.28000277280807495,
				-3.576035965124902e-07,
				7.723862722741615e-07
			]
		},
		{
			"children":[
				48
			],
			"name":"right_shoulder_BIND",
			"rotation":[
				6.6926437725101096e-09,
				-1.368514290334133e-06,
				2.956231946882326e-05,
				1
			],
			"translation":[
				-0.12806616723537445,
				-0.038038138300180435,
				0.028020033612847328
			]
		},
		{
			"children":[
				49
			],
			"name":"right_collar_BIND",
			"rotation":[
				0.7053026556968689,
				0.05047864094376564,
				-0.7053027749061584,
				0.050478246062994
			],
			"scale":[
				1.0000079870224,
				1.0000001192092896,
				1
			],
			"translation":[
				0.1083795428276062,
				-0.0014220178127288818,
				0.03817179426550865
			]
		},
		{
			"children":[
				2,
				26,
				50
			],
			"name":"spine3_BIND",
			"rotation":[
				-3.0878644086129725e-09,
				1.6429831717346133e-08,
				-0.0991772934794426,
				0.9950698018074036
			],
			"scale":[
				0.9999999403953552,
				0.9999999403953552,
				1
			],
			"translation":[
				0.0679263174533844,
				-2.1420419216156006e-08,
				-3.2364153579322874e-09
			]
		},
		{
			"children":[
				51
			],
			"name":"spine2_BIND",
			"rotation":[
				-5.824261073428261e-09,
				1.78626287095085e-08,
				-0.08881217986345291,
				0.9960483908653259
			],
			"translation":[
				0.11056400090456009,
				-9.313225746154785e-08,
				-9.233549924658746e-09
			]
		},
		{
			"children":[
				52
			],
			"name":"spine1_BIND",
			"rotation":[
				6.330925561570666e-09,
				-1.9802012474201547e-08,
				0.09952396154403687,
				0.9950351715087891
			],
			"scale":[
				1,
				1.0000001192092896,
				1
			],
			"translation":[
				0.14202870428562164,
				-8.381903171539307e-09,
				-6.20826545727482e-09
			]
		},
		{
			"name":"left_foot_BIND",
			"rotation":[
				4.714820178719492e-08,
				-1.30385160446167e-08,
				2.2387392561995512e-07,
				1
			],
			"scale":[
				1,
				1.0000001192092896,
				1
			],
			"translation":[
				0.12614287436008453,
				3.08966264128685e-07,
				-9.957147995010018e-08
			]
		},
		{
			"children":[
				54
			],
			"name":"left_ankle_BIND",
			"rotation":[
				0.03508783131837845,
				-0.015710553154349327,
				0.5928042531013489,
				0.8044285178184509
			],
			"scale":[
				1,
				1,
				0.9999999403953552
			],
			"translation":[
				0.37682509422302246,
				-8.90286173671484e-08,
				-5.22850314155221e-08
			]
		},
		{
			"children":[
				55
			],
			"name":"left_knee_BIND",
			"rotation":[
				-0.0004489292041398585,
				-1.5854459434194723e-06,
				-3.187183028785512e-05,
				0.9999998807907104
			],
			"translation":[
				0.4132264256477356,
				3.119930624961853e-08,
				-1.737498678267002e-08
			]
		},
		{
			"children":[
				56
			],
			"name":"left_hip_BIND",
			"rotation":[
				-1.4793491800446645e-06,
				-0.028181327506899834,
				0.9993693828582764,
				0.021603669971227646
			],
			"scale":[
				1.000002384185791,
				1.000000238418579,
				1.0000040531158447
			],
			"translation":[
				-0.0872025117278099,
				0.00818562414497137,
				-0.07133395969867706
			]
		},
		{
			"name":"right_foot_BIND",
			"rotation":[
				-2.875458626760974e-08,
				1.4610124665637159e-08,
				-9.697306069256229e-08,
				1
			],
			"scale":[
				0.9999999403953552,
				1,
				0.9999999403953552
			],
			"translation":[
				-0.12478109449148178,
				1.6952981241047382e-07,
				2.3195752874016762e-08
			]
		},
		{
			"children":[
				58
			],
			"name":"right_ankle_BIND",
			"rotation":[
				-0.0003414533566683531,
				0.002515515312552452,
				0.5875054001808167,
				0.809216320514679
			],
			"scale":[
				1,
				1.0000001192092896,
				1
			],
			"translation":[
				-0.3758504092693329,
				-2.739125193329528e-08,
				-3.0678393159178086e-09
			]
		},
		{
			"children":[
				59
			],
			"name":"right_knee_BIND",
			"rotation":[
				-2.392880782409179e-09,
				-4.24164863943588e-06,
				-1.6493218936375342e-05,
				1
			],
			"scale":[
				0.9999999403953552,
				0.9999999403953552,
				0.9999999403953552
			],
			"translation":[
				-0.4161168038845062,
				9.140467227553017e-08,
				2.528986442484893e-08
			]
		},
		{
			"children":[
				60
			],
			"name":"right_hip_BIND",
			"rotation":[
				1.5756101978681158e-09,
				0.0013938929187133908,
				-0.021491382271051407,
				0.999768078327179
			],
			"translation":[
				-0.08720250427722931,
				0.00818562414497137,
				0.07133395969867706
			]
		},
		{
			"children":[
				53,
				57,
				61
			],
			"name":"pelvis_BIND",
			"rotation":[
				-0.5084925293922424,
				-0.4913608133792877,
				0.5084924697875977,
				0.49136078357696533
			],
			"scale":[
				1,
				1.0000001192092896,
				1.0000001192092896
			],
			"translation":[
				-1.2621774201417545e-31,
				0.9238216280937195,
				-0.023336218670010567
			]
		},
		{
			"mesh":0,
			"name":"skinnedChest_SKIN",
			"skin":0
		},
		{
			"children":[
				63,
				62
			],
			"name":"axel_skelmesh"
		}
	],
	"meshes":[
		{
			"name":"Mesh.094",
			"primitives":[
				{
					"attributes":{
						"POSITION":0,
						"NORMAL":1,
						"TEXCOORD_0":2,
						"COLOR_0":3,
						"COLOR_1":4,
						"JOINTS_0":5,
						"WEIGHTS_0":6
					},
					"indices":7
				}
			]
		}
	],
	"skins":[
		{
			"inverseBindMatrices":8,
			"joints":[
				62,
				53,
				52,
				51,
				2,
				1,
				0,
				26,
				25,
				24,
				23,
				6,
				5,
				4,
				3,
				10,
				9,
				8,
				7,
				14,
				13,
				12,
				11,
				18,
				17,
				16,
				15,
				22,
				21,
				20,
				19,
				50,
				49,
				48,
				47,
				30,
				29,
				28,
				27,
				34,
				33,
				32,
				31,
				38,
				37,
				36,
				35,
				42,
				41,
				40,
				39,
				46,
				45,
				44,
				43,
				57,
				56,
				55,
				54,
				61,
				60,
				59,
				58
			],
			"name":"axel_skelmesh"
		}
	],
	"accessors":[
		{
			"bufferView":0,
			"componentType":5126,
			"count":20547,
			"max":[
				0.8545159101486206,
				1.6092890501022339,
				0.13208328187465668
			],
			"min":[
				-0.8545159101486206,
				-0.00042238886817358434,
				-0.14959540963172913
			],
			"type":"VEC3"
		},
		{
			"bufferView":1,
			"componentType":5126,
			"count":20547,
			"type":"VEC3"
		},
		{
			"bufferView":2,
			"componentType":5126,
			"count":20547,
			"type":"VEC2"
		},
		{
			"bufferView":3,
			"componentType":5123,
			"count":20547,
			"normalized":true,
			"type":"VEC4"
		},
		{
			"bufferView":4,
			"componentType":5123,
			"count":20547,
			"normalized":true,
			"type":"VEC4"
		},
		{
			"bufferView":5,
			"componentType":5121,
			"count":20547,
			"type":"VEC4"
		},
		{
			"bufferView":6,
			"componentType":5126,
			"count":20547,
			"type":"VEC4"
		},
		{
			"bufferView":7,
			"componentType":5123,
			"count":102534,
			"type":"SCALAR"
		},
		{
			"bufferView":8,
			"componentType":5126,
			"count":63,
			"type":"MAT4"
		}
	],
	"bufferViews":[
		{
			"buffer":0,
			"byteLength":246564,
			"byteOffset":0,
			"target":34962
		},
		{
			"buffer":0,
			"byteLength":246564,
			"byteOffset":246564,
			"target":34962
		},
		{
			"buffer":0,
			"byteLength":164376,
			"byteOffset":493128,
			"target":34962
		},
		{
			"buffer":0,
			"byteLength":164376,
			"byteOffset":657504,
			"target":34962
		},
		{
			"buffer":0,
			"byteLength":164376,
			"byteOffset":821880,
			"target":34962
		},
		{
			"buffer":0,
			"byteLength":82188,
			"byteOffset":986256,
			"target":34962
		},
		{
			"buffer":0,
			"byteLength":328752,
			"byteOffset":1068444,
			"target":34962
		},
		{
			"buffer":0,
			"byteLength":205068,
			"byteOffset":1397196,
			"target":34963
		},
		{
			"buffer":0,
			"byteLength":4032,
			"byteOffset":1602264
		}
	],
	"buffers":[
		{
			"byteLength":1606296,
			"uri":"axel.bin"
		}
	]
}
